<?xml version="1.0" standalone="no"?>
<!DOCTYPE svg PUBLIC "-//W3C//DTD SVG 20010904//EN"
 "http://www.w3.org/TR/2001/REC-SVG-20010904/DTD/svg10.dtd">
<svg version="1.0" xmlns="http://www.w3.org/2000/svg"
 width="700.000000pt" height="700.000000pt" viewBox="0 0 700.000000 700.000000"
 preserveAspectRatio="xMidYMid meet">
<metadata>
Created by potrace 1.14, written by Peter Selinger 2001-2017
</metadata>
<g transform="translate(0.000000,700.000000) scale(0.100000,-0.100000)"
fill="#000000" stroke="none">
<path d="M3189 6996 c-2 -2 -35 -7 -74 -11 -169 -16 -402 -78 -557 -147 -46
-21 -68 -45 -30 -34 9 3 35 8 57 11 23 3 50 7 60 9 18 3 51 8 165 21 79 10
114 14 300 30 126 12 372 19 603 17 141 0 257 3 257 7 0 9 -225 66 -305 77
-27 3 -59 9 -70 11 -24 5 -401 13 -406 9z"/>
<path d="M2015 6655 c-275 -80 -527 -210 -757 -391 -84 -66 -272 -251 -344
-340 -70 -85 -169 -233 -161 -240 3 -3 23 11 44 32 73 74 238 220 398 353 206
171 549 394 860 561 92 49 89 47 78 53 -4 2 -57 -10 -118 -28z"/>
<path d="M5180 6423 c0 -5 28 -26 63 -49 257 -169 504 -422 835 -854 275 -361
347 -450 350 -437 1 7 -13 51 -33 98 -226 529 -691 1043 -1093 1209 -77 32
-122 44 -122 33z"/>
<path d="M3093 6375 c-17 -12 -20 -22 -16 -52 3 -21 5 -54 6 -73 2 -33 0 -35
-29 -34 -18 1 -43 13 -64 32 -18 17 -37 29 -41 26 -4 -2 -1 -26 7 -52 8 -26
17 -59 21 -74 5 -27 4 -28 -28 -22 -43 8 -55 20 -72 68 -18 52 -35 63 -73 45
-27 -14 -29 -18 -28 -74 1 -88 13 -198 35 -304 33 -162 24 -200 -40 -166 -40
20 -41 7 -4 -72 46 -101 84 -206 128 -358 31 -105 32 -109 48 -195 15 -76 15
-90 3 -91 -22 -2 -164 308 -180 391 -12 67 -14 75 -41 170 -146 508 -372 691
-677 547 -102 -48 -216 -146 -379 -325 -63 -69 -81 -159 -43 -216 8 -13 16
-36 18 -52 9 -75 94 -192 160 -219 24 -10 35 -25 49 -64 10 -28 51 -95 91
-149 63 -82 109 -136 261 -298 89 -95 89 -96 15 -37 -103 83 -175 156 -303
308 -267 317 -385 410 -517 409 -88 -1 -172 -54 -250 -159 -21 -27 -51 -64
-67 -80 -132 -142 -248 -331 -288 -469 -23 -79 -17 -193 15 -258 57 -120 215
-221 420 -268 91 -21 84 -25 -43 -27 -67 -2 -169 -5 -226 -9 -96 -5 -105 -4
-123 16 -21 23 -46 21 -103 -6 -35 -16 -60 -51 -76 -106 -9 -34 -5 -35 24 -5
30 32 56 41 64 21 4 -10 -12 -33 -46 -68 -28 -28 -51 -60 -51 -71 0 -13 15
-28 45 -44 40 -21 65 -54 52 -68 -11 -11 -44 -10 -69 3 -15 8 -31 14 -37 14
-5 0 -24 -35 -42 -77 -29 -68 -33 -89 -34 -168 0 -81 3 -95 27 -136 51 -88
142 -141 309 -183 95 -24 135 -30 267 -42 40 -4 71 -8 70 -10 -2 -1 -23 -5
-48 -9 -255 -36 -424 -168 -470 -364 -12 -51 -10 -175 5 -244 34 -166 184
-384 310 -450 146 -78 257 -47 337 92 12 22 26 41 31 41 14 0 26 -49 23 -97
-2 -26 -4 -56 -5 -65 0 -10 -15 -33 -31 -52 -70 -79 -96 -205 -65 -311 20 -69
64 -160 95 -195 12 -14 30 -34 39 -45 61 -75 195 -162 292 -189 156 -45 270
-17 394 95 74 67 125 98 125 76 0 -8 -19 -58 -42 -113 -57 -135 -58 -193 -5
-280 39 -66 128 -163 189 -207 118 -86 289 -140 448 -140 248 0 437 108 528
301 l38 81 1 -70 c5 -202 159 -326 414 -331 90 -2 184 6 237 21 17 5 32 8 32
6 0 -11 214 71 286 109 252 134 378 312 352 499 -4 33 -15 73 -22 89 -17 33
-13 35 17 7 38 -36 114 -69 179 -78 123 -17 268 27 411 123 240 162 389 405
382 621 -1 40 3 78 11 93 16 31 10 79 -13 105 -10 11 -43 38 -73 60 -56 41
-100 84 -100 98 0 4 4 19 10 33 9 24 12 25 77 22 247 -12 488 227 510 504 10
130 -43 258 -140 341 -41 34 -34 56 47 148 80 90 114 154 112 213 l-1 43 -50
5 c-65 7 -68 32 -7 73 48 32 52 54 26 134 -49 151 -163 312 -233 330 -33 8
-74 -8 -77 -31 -3 -23 -21 -35 -43 -31 -9 2 -41 4 -71 4 l-56 1 56 58 c189
194 193 530 8 715 -43 43 -154 107 -185 107 -7 0 -15 10 -17 23 -10 44 -28
132 -32 157 -3 14 -23 62 -44 107 -117 241 -363 317 -615 190 -50 -25 -115
-67 -135 -87 -43 -44 -48 -38 -12 15 68 101 94 170 98 257 4 87 -9 128 -58
188 -54 68 -168 137 -308 186 l-65 23 -13 -31 c-15 -36 -23 -30 -46 33 -23 59
-59 99 -87 94 -12 -2 -43 -18 -69 -35 -63 -40 -107 -47 -151 -24 -106 54 -286
50 -304 -7 -8 -24 6 -42 59 -81 21 -15 37 -28 35 -29 -2 0 -13 -2 -23 -4 -30
-6 -34 -22 -21 -87 12 -55 11 -62 -6 -79 -30 -30 -51 -11 -89 78 -33 75 -89
174 -113 198 -36 34 -92 68 -142 86 -76 26 -242 35 -272 14z m141 -2198 c54
-110 83 -141 131 -141 44 0 79 32 130 120 43 73 50 80 69 65 13 -11 19 -30 32
-114 5 -38 5 -38 -27 -35 -28 3 -34 -1 -39 -22 -19 -75 21 -75 114 -1 67 53
101 73 109 65 3 -3 3 -32 0 -65 -5 -53 -3 -62 18 -85 23 -25 26 -26 112 -19
l89 7 -12 -23 c-7 -13 -25 -40 -40 -59 -36 -46 -25 -71 47 -106 29 -15 53 -30
53 -35 0 -5 -18 -18 -40 -29 -22 -11 -40 -24 -40 -29 0 -9 136 -137 177 -166
33 -24 8 -24 -111 0 -141 30 -151 30 -153 8 -3 -38 -12 -71 -42 -152 -34 -94
-38 -136 -16 -167 14 -20 96 -61 138 -70 11 -2 22 -6 25 -9 7 -6 -2 -7 -103
-10 -44 -1 -97 -3 -117 -4 -23 -1 -47 -10 -63 -24 -44 -38 -34 -100 34 -210
l21 -34 -54 27 c-55 28 -87 30 -139 11 -34 -13 -82 -87 -98 -152 -13 -51 -29
-65 -29 -26 0 74 -53 257 -86 297 -52 61 -98 29 -196 -137 -64 -108 -83 -127
-91 -87 -3 16 14 59 49 130 60 117 67 160 32 173 -13 5 -32 7 -43 5 -38 -8
-92 -7 -105 1 -9 5 -10 19 -5 49 14 76 10 108 -15 128 -24 20 -102 44 -165 52
-72 9 -190 19 -210 18 -19 -1 -19 0 -2 13 26 19 141 37 212 32 112 -7 185 20
185 68 0 44 -59 72 -153 73 -96 0 -112 30 -42 80 25 17 45 35 45 40 0 15 -33
38 -82 58 -27 10 -58 27 -70 36 -22 17 -20 17 66 17 68 0 103 5 148 22 140 52
130 129 -38 297 -65 63 -84 87 -62 75 18 -9 54 -18 80 -18 25 -1 78 -12 117
-25 62 -20 76 -21 117 -11 50 13 68 6 77 -28 8 -30 -6 -41 -59 -47 -105 -11
-117 -23 -63 -63 71 -53 159 35 154 154 -2 44 -16 146 -22 162 -3 7 -3 13 0
13 3 0 26 -42 51 -93z"/>
<path d="M326 5018 c-68 -105 -194 -424 -240 -609 -62 -254 -81 -423 -81 -724
0 -232 8 -344 36 -515 6 -36 13 -78 16 -95 12 -79 55 -264 87 -380 135 -492
386 -994 690 -1385 85 -109 282 -314 376 -392 114 -94 271 -185 395 -230 53
-20 160 -41 176 -36 7 2 -18 26 -57 53 -63 45 -233 175 -260 200 -7 5 -42 37
-80 70 -488 430 -867 1006 -1078 1636 -40 121 -102 344 -112 409 -3 14 -7 39
-11 55 -4 17 -8 37 -9 45 -2 8 -5 29 -8 45 -31 174 -50 402 -49 615 0 113 10
318 18 359 1 9 6 43 9 76 24 205 78 443 156 674 27 80 47 147 45 149 -2 2 -10
-7 -19 -20z"/>
<path d="M6500 4949 c0 -6 23 -62 59 -144 59 -132 120 -330 155 -508 42 -210
51 -306 51 -542 0 -169 -7 -312 -19 -370 -2 -11 -7 -40 -10 -65 -19 -138 -78
-374 -141 -565 -80 -242 -198 -497 -332 -720 -77 -128 -210 -321 -265 -387
-13 -14 -39 -45 -58 -69 -135 -165 -302 -327 -545 -528 -36 -30 -189 -137
-260 -183 -327 -210 -696 -369 -1078 -463 -311 -76 -511 -100 -852 -100 -265
0 -437 13 -608 46 -29 5 -68 12 -87 15 -30 5 -262 61 -327 80 -35 10 -27 -10
10 -24 51 -20 296 -102 315 -105 9 -2 37 -9 62 -16 25 -7 52 -15 60 -16 249
-52 321 -63 525 -80 65 -5 358 -6 410 -1 22 3 78 7 125 11 252 19 602 105 886
216 455 178 878 454 1222 797 98 97 131 133 227 242 97 111 240 312 334 469
57 93 201 371 201 385 0 4 9 25 19 49 50 110 152 418 167 502 2 17 7 37 9 45
2 8 6 27 9 43 3 15 7 35 10 45 3 9 8 34 10 54 3 21 8 53 11 70 3 18 7 46 10
62 27 171 28 592 1 786 -2 14 -6 50 -10 80 -4 30 -21 114 -37 185 -17 72 -32
139 -34 150 -3 11 -21 72 -41 135 -20 63 -37 121 -39 130 -11 55 -22 85 -62
160 -41 79 -82 143 -83 129z"/>
</g>
</svg>
